# xmcd
# 
# Track frame offsets:
#     150
#     16914
#     37053
#     41867
#     91220
#     111532
#     129071
#     141577
#     165298
#     187146
#     211896
#     234953
#     251469
#     267376
#     292689
# 
# Disc length: 4115
# 
# Revision: 2
# Processed by: cddbd v1.5.2PL0 Copyright (c) Steve Scherf et al.
# Submitted via: fre:ac v1.0.31
# 
DISCID=d110110f
DTITLE=Johnny Winter - True To The Blues - The Johnny Winter Story Disc 1
DYEAR=2014
DGENRE=Blues
TTITLE0=Bad Luck And Trouble
TTITLE1=Mean Town Blues
TTITLE2=Mike Bloomfield's Introduction Of Johnny Winter (Live At Fillmore East)
TTITLE3=It's My Own Fault (Live At Fillmore East)
TTITLE4=I'm Yours And I'm Hers
TTITLE5=Mean Mistreater
TTITLE6=Dallas
TTITLE7=Be Careful With A Fool
TTITLE8=Leland Mississippi Blues (Live At Woodstock)
TTITLE9=Memory Pain
TTITLE10=Highway 61 Revisted
TTITLE11=Miss Ann
TTITLE12=Hustled Down In Texas
TTITLE13=Black Cat Bone (Live At Royal Albert Hall)
TTITLE14=Johnny B. Goode (Live At The Royal Albert Hall)
EXTD=
EXTT0=
EXTT1=
EXTT2=
EXTT3=
EXTT4=
EXTT5=
EXTT6=
EXTT7=
EXTT8=
EXTT9=
EXTT10=
EXTT11=
EXTT12=
EXTT13=
EXTT14=
PLAYORDER=
